<?xml version="1.0" encoding="UTF-8" standalone="no"?>
<!-- Created with Inkscape (http://www.inkscape.org/) -->

<svg
   version="1.1"
   id="svg255"
   width="24"
   height="24"
   viewBox="0 0 23.999999 24"
   xmlns="http://www.w3.org/2000/svg"
   xmlns:svg="http://www.w3.org/2000/svg">
  <defs
     id="defs259" />
  <g
     id="g261"
     transform="translate(-1365.1784,-171.7211)">
    <path
       style="fill:#000000;stroke-width:1.33333"
       d="m 1365.1784,186.38776 v -9.33333 h 2.6667 2.6667 v -2.66667 -2.66666 h 6.6666 6.6667 v 5.33333 5.33333 h 2.6667 2.6666 v 6.66667 6.66667 h -5.3333 -5.3333 v -2.66667 -2.66667 h -1.3334 -1.3333 v 2.66667 2.66667 h -5.3333 -5.3334 z m 5.3334,5.33334 v -1.33334 h -1.3334 -1.3333 v 1.33334 1.33333 h 1.3333 1.3334 z m 16,0 v -1.33334 h -1.3334 -1.3333 v 1.33334 1.33333 h 1.3333 1.3334 z m -16,-5.33334 v -1.33333 h -1.3334 -1.3333 v 1.33333 1.33334 h 1.3333 1.3334 z m 5.3333,0 v -1.33333 h -1.3333 -1.3334 v 1.33333 1.33334 h 1.3334 1.3333 z m 5.3333,0 v -1.33333 h -1.3333 -1.3333 v 1.33333 1.33334 h 1.3333 1.3333 z m 5.3334,0 v -1.33333 h -1.3334 -1.3333 v 1.33333 1.33334 h 1.3333 1.3334 z m -16,-5.33333 v -1.33333 h -1.3334 -1.3333 v 1.33333 1.33333 h 1.3333 1.3334 z m 5.3333,0 v -1.33333 h -1.3333 -1.3334 v 1.33333 1.33333 h 1.3334 1.3333 z m 5.3333,0 v -1.33333 h -1.3333 -1.3333 v 1.33333 1.33333 h 1.3333 1.3333 z m -5.3333,-5.33333 v -1.33334 h -1.3333 -1.3334 v 1.33334 1.33333 h 1.3334 1.3333 z m 5.3333,0 v -1.33334 h -1.3333 -1.3333 v 1.33334 1.33333 h 1.3333 1.3333 z"
       id="path265" />
  </g>
</svg>
